<?xml version="1.0" encoding="UTF-8"?> <!-- Generator: Adobe Illustrator 23.1.1, SVG Export Plug-In . SVG Version: 6.00 Build 0) --> <svg xmlns="http://www.w3.org/2000/svg" xmlns:xlink="http://www.w3.org/1999/xlink" x="0px" y="0px" viewBox="0 0 500 500" style="enable-background:new 0 0 500 500;" xml:space="preserve"> <style type="text/css"> .st0{fill:#DEF2ED;} .st1{fill:#DEF2ED;stroke:#089247;stroke-width:14;stroke-linecap:round;stroke-linejoin:round;stroke-miterlimit:10;} .st2{fill:none;stroke:#A3A3A3;stroke-width:14;stroke-linecap:round;stroke-linejoin:round;stroke-miterlimit:10;} .st3{fill:#DEF2ED;stroke:#089247;stroke-width:12;stroke-linejoin:round;stroke-miterlimit:10;} .st4{fill:none;} .st5{fill:#089247;} .st6{fill:none;stroke:#089247;stroke-width:14;stroke-miterlimit:10;} .st7{fill:#DEF2ED;stroke:#089247;stroke-width:14;stroke-miterlimit:10;} .st8{fill:none;stroke:#089247;stroke-width:14;stroke-linecap:round;stroke-miterlimit:10;} .st9{fill:none;stroke:#089247;stroke-width:14;stroke-linecap:round;stroke-linejoin:round;stroke-miterlimit:10;} .st10{fill:none;stroke:#089247;stroke-width:14;stroke-linejoin:round;stroke-miterlimit:10;} .st11{fill:#FFFFFF;stroke:#089247;stroke-width:14;stroke-miterlimit:10;} .st12{fill:#DEF2ED;stroke:#089247;stroke-width:14;stroke-linejoin:round;stroke-miterlimit:10;} .st13{fill:#FFFFFF;stroke:#089247;stroke-width:12;stroke-linejoin:round;stroke-miterlimit:10;} .st14{fill:none;stroke:#089247;stroke-width:12;stroke-linecap:round;stroke-miterlimit:10;} .st15{fill:#FFFFFF;} .st16{fill:#DEF2ED;stroke:#089247;stroke-width:14;stroke-linecap:round;stroke-miterlimit:10;} .st17{fill:none;stroke:#A3A3A3;stroke-width:14;stroke-miterlimit:10;} .st18{fill:none;stroke:#A3A3A3;stroke-width:14;stroke-linejoin:round;stroke-miterlimit:10;} .st19{fill:#DEF2ED;stroke:#A3A3A3;stroke-width:14;stroke-linejoin:round;stroke-miterlimit:10;} .st20{fill:#A3A3A3;} .st21{fill:none;stroke:#A3A3A3;stroke-width:14;stroke-linecap:round;stroke-miterlimit:10;} .st22{fill:#FFFFFF;stroke:#089247;stroke-width:14;stroke-linecap:round;stroke-linejoin:round;stroke-miterlimit:10;} .st23{fill:#DEF2ED;stroke:#089247;stroke-width:11;stroke-linecap:round;stroke-linejoin:round;stroke-miterlimit:10;} </style> <g id="Layer_1"> </g> <g id="Layer_2"> <circle class="st8" cx="84.3" cy="91.7" r="50.7"></circle> <path class="st10" d="M133.2,227.5l80.4,0c10.2,0,18.5,8.3,18.5,18.5v0c0,10.2-8.3,18.5-18.5,18.5h-81.1 c52.8,19.5,52.3,67.9,52.3,67.9v99.4c0,14.9-12.1,27-27,27h0c-14.9,0-27-12.1-27-27v-97.1l-33.3-0.5H54.7 c-19.8,0-35.8-16-35.8-35.8V184.4c0-19.8,16-35.8,35.8-35.8h42.6c19.8,0,35.8,16,35.8,35.8V227.5L133.2,227.5z"></path> <circle class="st16" cx="415.7" cy="91.7" r="50.7"></circle> <path class="st12" d="M366.8,227.5l-80.4,0c-10.2,0-18.5,8.3-18.5,18.5v0c0,10.2,8.3,18.5,18.5,18.5h81.1 c-52.8,19.5-52.3,67.9-52.3,67.9v99.4c0,14.9,12.1,27,27,27h0c14.9,0,27-12.1,27-27v-97.1l33.3-0.5h42.6c19.8,0,35.8-16,35.8-35.8 V184.4c0-19.8-16-35.8-35.8-35.8h-42.6c-19.8,0-35.8,16-35.8,35.8V227.5L366.8,227.5z"></path> <polyline class="st9" points="84.3,207.1 84.3,274 410.3,274 410.3,207.1 "></polyline> <line class="st9" x1="247.3" y1="274" x2="247.3" y2="458.9"></line> <line class="st9" x1="215.1" y1="458.9" x2="279.5" y2="458.9"></line> <line class="st9" x1="54.7" y1="334.3" x2="54.7" y2="458.9"></line> <line class="st9" x1="443.4" y1="334.3" x2="443.4" y2="458.9"></line> </g> <g id="Layer_3"> </g> </svg> 